#N canvas 200 200 850 700 12;
#X obj 50 50 bng 15 250 50 0 empty empty Load_MIDI 17 7 0 10 #fcfcfc #000000 #000000;
#X obj 50 80 openpanel;
#X obj 50 110 prepend read;
#X obj 50 150 seq;
#X obj 150 50 tgl 15 0 empty empty Play/Stop 17 7 0 10 #fcfcfc #000000 #000000 0 1;
#X obj 150 80 sel 1 0;
#X msg 150 110 start;
#X msg 210 110 stop;
#X msg 270 110 pause;
#X obj 50 180 midiparse;
#X obj 50 210 unpack f f;
#X obj 300 540 moses 1;
#X obj 300 570 print Note_On;
#X obj 400 570 print Note_Off;
#X obj 120 150 print RAW_SEQ;
#X text 50 20 EPIC 1: MIDI I/O & Transport;
#X text 450 20 EPIC 2: Chromatic Processor (LUT);
#X obj 450 50 table array_scara 12;
#X obj 450 80 hradio 15 1 0 3 empty empty Scale_Selector 0 -8 0 10 #fcfcfc #000000 #000000 0;
#X obj 450 110 sel 0 1 2;
#X msg 450 140 0 0 0 0 0 0 0 0 0 0 0 0 0;
#X msg 520 170 0 0 0 -1 0 0 0 0 0 0 -1 0 0;
#X msg 590 200 0 1 0 0 0 -1 1 0 0 0 0 0 -1;
#X obj 450 230 s array_scara;
#X obj 50 240 t f f;
#X obj 81 286 % 12;
#X obj 210 312 tabread array_scara;
#X obj 50 330 +;
#X obj 50 360 t f f;
#X obj 107 431 noteout;
#X obj 450 450 nbx 3 14 0 11 0 0 empty empty Pitch_Class 0 -8 0 10 #fcfcfc #000000 #000000 0 256;
#X obj 550 450 bng 25 250 50 0 empty empty Note_Activity 17 7 0 10 #fcfcfc #000000 #000000;
#X obj 300 450 pgmout;
#X obj 180 380 unpack f f;
#X obj 180 430 ctlout;
#X obj 50 480 pack f f;
#X obj 50 510 midiformat;
#X obj 50 540 seq;
#X obj 150 540 bng 15 250 50 0 empty empty REC_START 17 7 0 10 #fcfcfc #000000 #000000;
#X msg 150 570 record;
#X obj 250 540 bng 15 250 50 0 empty empty SAVE_MIDI 17 7 0 10 #fcfcfc #000000 #000000;
#X msg 250 570 write spiegel_psaltic.mid;
#X msg 150 600 stop;
#X connect 0 0 1 0;
#X connect 1 0 2 0;
#X connect 2 0 3 0;
#X connect 3 0 9 0;
#X connect 3 0 14 0;
#X connect 4 0 5 0;
#X connect 5 0 6 0;
#X connect 5 1 7 0;
#X connect 6 0 3 0;
#X connect 7 0 3 0;
#X connect 8 0 3 0;
#X connect 9 0 10 0;
#X connect 9 1 33 0;
#X connect 9 1 36 1;
#X connect 9 2 36 2;
#X connect 9 3 32 0;
#X connect 9 3 36 3;
#X connect 9 4 36 4;
#X connect 9 5 36 5;
#X connect 9 6 29 2;
#X connect 9 6 32 1;
#X connect 9 6 34 2;
#X connect 9 6 36 6;
#X connect 10 0 24 0;
#X connect 10 1 11 0;
#X connect 10 1 29 1;
#X connect 11 0 13 0;
#X connect 11 1 12 0;
#X connect 11 1 31 0;
#X connect 18 0 19 0;
#X connect 19 0 20 0;
#X connect 19 1 21 0;
#X connect 19 2 22 0;
#X connect 20 0 23 0;
#X connect 21 0 23 0;
#X connect 22 0 23 0;
#X connect 24 0 27 0;
#X connect 24 1 25 0;
#X connect 25 0 26 0;
#X connect 25 0 30 0;
#X connect 26 0 27 1;
#X connect 27 0 28 0;
#X connect 28 0 29 0;
#X connect 28 1 35 0;
#X connect 33 0 34 1;
#X connect 33 1 34 0;
#X connect 10 1 35 1;
#X connect 35 0 36 0;
#X connect 36 0 37 0;
#X connect 38 0 39 0;
#X connect 39 0 37 0;
#X connect 40 0 41 0;
#X connect 41 0 37 0;
#X connect 42 0 37 0;