#N canvas 200 200 800 600 12;
#X obj 50 50 bng 15 250 50 0 empty empty Load_MIDI 17 7 0 10 #fcfcfc #000000 #000000;
#X obj 50 80 openpanel;
#X obj 50 110 prepend read;
#X obj 50 150 seq;
#X obj 150 50 tgl 15 0 empty empty Play/Stop 17 7 0 10 #fcfcfc #000000 #000000 0 1;
#X obj 150 80 sel 1 0;
#X msg 150 110 start;
#X msg 210 110 stop;
#X msg 270 110 pause;
#X obj 50 180 midiparse;
#X obj 50 210 unpack f f;
#X obj 107 465 moses 1;
#X obj 50 520 print Note_On;
#X obj 150 520 print Note_Off;
#X obj 120 150 print RAW_SEQ;
#X text 50 20 EPIC 1: MIDI I/O & Transport;
#X text 450 20 EPIC 2: Chromatic Processor (LUT);
#X obj 609 65 table array_scara 12;
#X obj 452 80 hradio 15 1 0 3 empty empty Scale_Selector 0 -8 0 10 #fcfcfc #000000 #000000 0;
#X obj 450 110 sel 0 1 2;
#X msg 450 180 0 0 0 0 0 0 0 0 0 0 0 0;
#X msg 520 210 0 0 -1 0 0 0 0 0 0 -1 0 0;
#X msg 590 240 1 0 0 0 -1 1 0 0 0 0 0 -1;
#X obj 450 270 list prepend set;
#X obj 450 300 list trim;
#X obj 450 330 s array_scara;
#X obj 50 260 t f f;
#X obj 133 318 % 12;
#X obj 133 357 tabread array_scara;
#X obj 50 390 +;
#X obj 50 420 pack f f;
#X connect 0 0 1 0;
#X connect 1 0 2 0;
#X connect 2 0 3 0;
#X connect 3 0 9 0;
#X connect 3 0 14 0;
#X connect 4 0 5 0;
#X connect 5 0 6 0;
#X connect 5 1 7 0;
#X connect 6 0 3 0;
#X connect 7 0 3 0;
#X connect 8 0 3 0;
#X connect 9 0 10 0;
#X connect 10 0 26 0;
#X connect 10 1 30 1;
#X connect 11 0 13 0;
#X connect 11 1 12 0;
#X connect 18 0 19 0;
#X connect 19 0 20 0;
#X connect 19 1 21 0;
#X connect 19 2 22 0;
#X connect 20 0 23 0;
#X connect 21 0 23 0;
#X connect 22 0 23 0;
#X connect 23 0 24 0;
#X connect 24 0 25 0;
#X connect 26 0 29 0;
#X connect 26 1 27 0;
#X connect 27 0 28 0;
#X connect 28 0 29 1;
#X connect 29 0 30 0;
#X connect 30 0 11 0;
